<svg xmlns="http://www.w3.org/2000/svg" viewBox="0 0 552.71 65.62"><defs><style>.cls-1{fill:#38b188;}</style></defs><title>logo</title><g id="Layer_2" data-name="Layer 2"><g id="Layer_1-2" data-name="Layer 1"><path class="cls-1" d="M45.83,45.91H10.53a12.23,12.23,0,0,0,4.84,7.88,15.88,15.88,0,0,0,9.73,2.91,16.4,16.4,0,0,0,12.21-4.89L43,58.29a19,19,0,0,1-7.67,5.48,27.91,27.91,0,0,1-10.45,1.85,27.79,27.79,0,0,1-13.06-2.95,21.23,21.23,0,0,1-8.72-8.21A23.19,23.19,0,0,1,0,42.54,23.54,23.54,0,0,1,3,30.71a21.22,21.22,0,0,1,8.3-8.21,24.22,24.22,0,0,1,12-2.95A23.6,23.6,0,0,1,35,22.45a20.59,20.59,0,0,1,8.09,8.17A24.78,24.78,0,0,1,46,42.79Q46,43.89,45.83,45.91ZM14.7,31a12.58,12.58,0,0,0-4.25,8H36A12.43,12.43,0,0,0,31.84,31a12.56,12.56,0,0,0-8.59-3A12.71,12.71,0,0,0,14.7,31Zm78.89-6.44q5.14,5,5.14,14.74V65H88.2V40.6q0-5.89-2.78-8.89t-7.92-3q-5.81,0-9.18,3.5T64.95,42.29V65H54.42V20h10v5.81A16.45,16.45,0,0,1,71,21.14a23.65,23.65,0,0,1,8.93-1.6Q88.45,19.54,93.59,24.51Zm203-6.82v2.7h12.38v8.42h-12V65H286.35V28.81h-7.41V20.39h7.41V17.52q0-7.24,4.21-11.41t11.88-4.17q6.06,0,9.52,2.44L309,12.3a10.07,10.07,0,0,0-5.81-1.85Q296.54,10.45,296.54,17.69Zm25,45A21.49,21.49,0,0,1,313,54.46a23.19,23.19,0,0,1-3.07-11.92A23,23,0,0,1,313,30.66a21.59,21.59,0,0,1,8.55-8.17,27.3,27.3,0,0,1,24.68,0,21.61,21.61,0,0,1,8.55,8.17,23,23,0,0,1,3.08,11.88,23.19,23.19,0,0,1-3.08,11.92,21.51,21.51,0,0,1-8.55,8.21,27.3,27.3,0,0,1-24.68,0Zm21.9-9.94a14,14,0,0,0,3.79-10.19,14,14,0,0,0-3.79-10.19,12.87,12.87,0,0,0-9.6-3.88,12.73,12.73,0,0,0-9.56,3.88,14,14,0,0,0-3.75,10.19,14,14,0,0,0,3.75,10.19,12.72,12.72,0,0,0,9.56,3.88A12.86,12.86,0,0,0,343.46,52.73Zm48.86-33.19v10a13.34,13.34,0,0,0-2.44-.25q-6.15,0-9.6,3.58t-3.45,10.32V65H366.29V20h10v6.57Q380.86,19.54,392.32,19.54Zm10.61,44.65a26.87,26.87,0,0,1-8.34-3.62l4-8a26,26,0,0,0,7.29,3.24A30.22,30.22,0,0,0,414.31,57q9.43,0,9.43-5a3.32,3.32,0,0,0-2.4-3.29A41.49,41.49,0,0,0,413.63,47a62.33,62.33,0,0,1-9.06-1.94,13.88,13.88,0,0,1-6.06-3.83q-2.57-2.74-2.57-7.62a12,12,0,0,1,5.35-10.23q5.35-3.83,14.45-3.83A41.75,41.75,0,0,1,425,20.6a26,26,0,0,1,7.58,2.82l-4,8a25,25,0,0,0-12.89-3.37,14.3,14.3,0,0,0-7,1.39,4.15,4.15,0,0,0-2.4,3.67,3.66,3.66,0,0,0,2.57,3.58,40.67,40.67,0,0,0,8,2,61.69,61.69,0,0,1,8.85,1.94,13.86,13.86,0,0,1,5.94,3.71Q434,46.92,434,51.72a11.73,11.73,0,0,1-5.48,10.11q-5.48,3.79-14.91,3.79A40.26,40.26,0,0,1,402.93,64.19ZM459.8,45.74,452,53.16V65H441.43V2.53H452V40.27L473.78,20h12.64L467.63,38.92,488.19,65h-12.8Zm73.79.17h-35.3a12.23,12.23,0,0,0,4.84,7.88,15.88,15.88,0,0,0,9.73,2.91,16.4,16.4,0,0,0,12.21-4.89l5.64,6.49a19,19,0,0,1-7.67,5.48,30.38,30.38,0,0,1-23.5-1.09,21.23,21.23,0,0,1-8.72-8.21,23.19,23.19,0,0,1-3.07-11.92,23.54,23.54,0,0,1,3-11.84,21.22,21.22,0,0,1,8.3-8.21,24.22,24.22,0,0,1,12-2.95,23.6,23.6,0,0,1,11.75,2.91,20.59,20.59,0,0,1,8.09,8.17,24.78,24.78,0,0,1,2.91,12.17Q533.76,43.89,533.59,45.91ZM502.46,31a12.58,12.58,0,0,0-4.25,8h25.53A12.43,12.43,0,0,0,519.61,31,12.56,12.56,0,0,0,511,28,12.71,12.71,0,0,0,502.46,31ZM542.18,2.53h10.53V65H542.18ZM257.83,45q.1-1.36.1-2.19A24.78,24.78,0,0,0,255,30.62a20.59,20.59,0,0,0-8.09-8.17,23.6,23.6,0,0,0-11.75-2.91,24.22,24.22,0,0,0-12,2.95,21.22,21.22,0,0,0-8.3,8.21,23.54,23.54,0,0,0-3,11.84c0,.83,0,1.64.12,2.44Zm-31.2-14a12.71,12.71,0,0,1,8.55-3,12.56,12.56,0,0,1,8.59,3,12.43,12.43,0,0,1,4.13,7.92H222.38A12.58,12.58,0,0,1,226.63,31Zm-79,14h10.53V20H147.66ZM153,12.64a6.56,6.56,0,0,0,4.84-1.9,6.35,6.35,0,0,0,1.9-4.67,5.57,5.57,0,0,0-1.94-4.34A7,7,0,0,0,153,0a6.76,6.76,0,0,0-4.8,1.81,5.91,5.91,0,0,0-1.94,4.51,5.91,5.91,0,0,0,1.94,4.51A6.76,6.76,0,0,0,153,12.64ZM135.53,45V2.53H125V45Zm45.32,0V2.53H170.32V45Zm22.66,0V2.53H193V45Zm54.86,10.59H123.74V65H258.37Z"/></g></g></svg>